TITLE ""
FILE "28.mp3" MP3
  TRACK 01 AUDIO
    TITLE "28_01"
    INDEX 01 00:00:00
  TRACK 02 AUDIO
    TITLE "28_02"
    INDEX 01 00:00:18
  TRACK 03 AUDIO
    TITLE "28_03"
    INDEX 01 00:01:65
  TRACK 04 AUDIO
    TITLE "28_04"
    INDEX 01 00:02:29
  TRACK 05 AUDIO
    TITLE "28_05"
    INDEX 01 00:03:26
  TRACK 06 AUDIO
    TITLE "28_06"
    INDEX 01 00:03:67
  TRACK 07 AUDIO
    TITLE "28_07"
    INDEX 01 00:09:35
  TRACK 08 AUDIO
    TITLE "28_08"
    INDEX 01 00:09:74
  TRACK 09 AUDIO
    TITLE "28_09"
    INDEX 01 00:12:47
  TRACK 10 AUDIO
    TITLE "28_10"
    INDEX 01 00:13:09
  TRACK 11 AUDIO
    TITLE "28_11"
    INDEX 01 00:16:01
  TRACK 12 AUDIO
    TITLE "28_12"
    INDEX 01 00:16:47
  TRACK 13 AUDIO
    TITLE "28_13"
    INDEX 01 00:18:36
  TRACK 14 AUDIO
    TITLE "28_14"
    INDEX 01 00:18:75
  TRACK 15 AUDIO
    TITLE "28_15"
    INDEX 01 00:19:70
  TRACK 16 AUDIO
    TITLE "28_16"
    INDEX 01 00:20:37
  TRACK 17 AUDIO
    TITLE "28_17"
    INDEX 01 00:26:55
  TRACK 18 AUDIO
    TITLE "28_18"
    INDEX 01 00:27:21
  TRACK 19 AUDIO
    TITLE "28_19"
    INDEX 01 00:30:02
  TRACK 20 AUDIO
    TITLE "28_20"
    INDEX 01 00:30:41
  TRACK 21 AUDIO
    TITLE "28_21"
    INDEX 01 00:34:39
  TRACK 22 AUDIO
    TITLE "28_22"
    INDEX 01 00:35:03
  TRACK 23 AUDIO
    TITLE "28_23"
    INDEX 01 00:37:08
  TRACK 24 AUDIO
    TITLE "28_24"
    INDEX 01 00:37:49
  TRACK 25 AUDIO
    TITLE "28_25"
    INDEX 01 00:38:50
  TRACK 26 AUDIO
    TITLE "28_26"
    INDEX 01 00:39:18
  TRACK 27 AUDIO
    TITLE "28_27"
    INDEX 01 00:46:12
  TRACK 28 AUDIO
    TITLE "28_28"
    INDEX 01 00:46:50
  TRACK 29 AUDIO
    TITLE "28_29"
    INDEX 01 00:49:36
  TRACK 30 AUDIO
    TITLE "28_30"
    INDEX 01 00:50:02
  TRACK 31 AUDIO
    TITLE "28_31"
    INDEX 01 00:53:65
  TRACK 32 AUDIO
    TITLE "28_32"
    INDEX 01 00:54:30
  TRACK 33 AUDIO
    TITLE "28_33"
    INDEX 01 00:56:38
  TRACK 34 AUDIO
    TITLE "28_34"
    INDEX 01 00:57:10
  TRACK 35 AUDIO
    TITLE "28_35"
    INDEX 01 00:58:12
  TRACK 36 AUDIO
    TITLE "28_36"
    INDEX 01 00:58:53
  TRACK 37 AUDIO
    TITLE "28_37"
    INDEX 01 01:04:65
  TRACK 38 AUDIO
    TITLE "28_38"
    INDEX 01 01:05:35
  TRACK 39 AUDIO
    TITLE "28_39"
    INDEX 01 01:08:30
  TRACK 40 AUDIO
    TITLE "28_40"
    INDEX 01 01:08:71
  TRACK 41 AUDIO
    TITLE "28_41"
    INDEX 01 01:12:65
  TRACK 42 AUDIO
    TITLE "28_42"
    INDEX 01 01:13:35
  TRACK 43 AUDIO
    TITLE "28_43"
    INDEX 01 01:15:53
